<svg width="191" height="60" viewBox="0 0 191 60" fill="none" xmlns="http://www.w3.org/2000/svg">
<path d="M88.9034 16.3636V28H86.4716V18.3636H81.767V28H79.3352V16.3636H88.9034ZM101.459 22.1818C101.459 23.4508 101.218 24.5303 100.737 25.4205C100.26 26.3106 99.6085 26.9905 98.7828 27.4602C97.9608 27.9261 97.0366 28.1591 96.0101 28.1591C94.976 28.1591 94.0479 27.9242 93.226 27.4545C92.404 26.9848 91.7544 26.3049 91.2771 25.4148C90.7998 24.5246 90.5612 23.447 90.5612 22.1818C90.5612 20.9129 90.7998 19.8333 91.2771 18.9432C91.7544 18.053 92.404 17.375 93.226 16.9091C94.0479 16.4394 94.976 16.2045 96.0101 16.2045C97.0366 16.2045 97.9608 16.4394 98.7828 16.9091C99.6085 17.375 100.26 18.053 100.737 18.9432C101.218 19.8333 101.459 20.9129 101.459 22.1818ZM98.9646 22.1818C98.9646 21.3598 98.8415 20.6667 98.5953 20.1023C98.3529 19.5379 98.0101 19.1098 97.5669 18.8182C97.1237 18.5265 96.6048 18.3807 96.0101 18.3807C95.4154 18.3807 94.8964 18.5265 94.4532 18.8182C94.0101 19.1098 93.6654 19.5379 93.4191 20.1023C93.1767 20.6667 93.0555 21.3598 93.0555 22.1818C93.0555 23.0038 93.1767 23.697 93.4191 24.2614C93.6654 24.8258 94.0101 25.2538 94.4532 25.5455C94.8964 25.8371 95.4154 25.983 96.0101 25.983C96.6048 25.983 97.1237 25.8371 97.5669 25.5455C98.0101 25.2538 98.3529 24.8258 98.5953 24.2614C98.8415 23.697 98.9646 23.0038 98.9646 22.1818ZM109.841 28L106.103 23.0398H105.262V28H102.801V16.3636H105.262V21.0114H105.756L109.62 16.3636H112.682L108.142 21.7614L112.892 28H109.841ZM113.649 28V16.3636H118.24C119.123 16.3636 119.875 16.5322 120.496 16.8693C121.117 17.2027 121.591 17.6667 121.917 18.2614C122.246 18.8523 122.411 19.5341 122.411 20.3068C122.411 21.0795 122.244 21.7614 121.911 22.3523C121.578 22.9432 121.095 23.4034 120.462 23.733C119.833 24.0625 119.072 24.2273 118.178 24.2273H115.252V22.2557H117.78C118.254 22.2557 118.644 22.1742 118.951 22.0114C119.261 21.8447 119.492 21.6155 119.644 21.3239C119.799 21.0284 119.877 20.6894 119.877 20.3068C119.877 19.9205 119.799 19.5833 119.644 19.2955C119.492 19.0038 119.261 18.7784 118.951 18.6193C118.64 18.4564 118.246 18.375 117.769 18.375H116.11V28H113.649ZM134.222 22.1818C134.222 23.4508 133.982 24.5303 133.5 25.4205C133.023 26.3106 132.372 26.9905 131.546 27.4602C130.724 27.9261 129.8 28.1591 128.773 28.1591C127.739 28.1591 126.811 27.9242 125.989 27.4545C125.167 26.9848 124.518 26.3049 124.04 25.4148C123.563 24.5246 123.324 23.447 123.324 22.1818C123.324 20.9129 123.563 19.8333 124.04 18.9432C124.518 18.053 125.167 17.375 125.989 16.9091C126.811 16.4394 127.739 16.2045 128.773 16.2045C129.8 16.2045 130.724 16.4394 131.546 16.9091C132.372 17.375 133.023 18.053 133.5 18.9432C133.982 19.8333 134.222 20.9129 134.222 22.1818ZM131.728 22.1818C131.728 21.3598 131.605 20.6667 131.358 20.1023C131.116 19.5379 130.773 19.1098 130.33 18.8182C129.887 18.5265 129.368 18.3807 128.773 18.3807C128.178 18.3807 127.66 18.5265 127.216 18.8182C126.773 19.1098 126.428 19.5379 126.182 20.1023C125.94 20.6667 125.819 21.3598 125.819 22.1818C125.819 23.0038 125.94 23.697 126.182 24.2614C126.428 24.8258 126.773 25.2538 127.216 25.5455C127.66 25.8371 128.178 25.983 128.773 25.983C129.368 25.983 129.887 25.8371 130.33 25.5455C130.773 25.2538 131.116 24.8258 131.358 24.2614C131.605 23.697 131.728 23.0038 131.728 22.1818ZM135.564 28V16.3636H140.224C141.08 16.3636 141.794 16.4905 142.366 16.7443C142.938 16.9981 143.368 17.3504 143.655 17.8011C143.943 18.2481 144.087 18.7633 144.087 19.3466C144.087 19.8011 143.996 20.2008 143.814 20.5455C143.633 20.8864 143.383 21.1667 143.064 21.3864C142.75 21.6023 142.39 21.7557 141.985 21.8466V21.9602C142.428 21.9792 142.843 22.1042 143.229 22.3352C143.619 22.5663 143.936 22.8902 144.178 23.3068C144.421 23.7197 144.542 24.2121 144.542 24.7841C144.542 25.4015 144.388 25.9527 144.082 26.4375C143.779 26.9186 143.33 27.2992 142.735 27.5795C142.14 27.8598 141.407 28 140.536 28H135.564ZM138.025 25.9886H140.03C140.716 25.9886 141.216 25.858 141.53 25.5966C141.845 25.3314 142.002 24.9792 142.002 24.5398C142.002 24.2178 141.924 23.9337 141.769 23.6875C141.614 23.4413 141.392 23.2481 141.104 23.108C140.82 22.9678 140.481 22.8977 140.087 22.8977H138.025V25.9886ZM138.025 21.233H139.849C140.186 21.233 140.485 21.1742 140.746 21.0568C141.011 20.9356 141.22 20.7652 141.371 20.5455C141.527 20.3258 141.604 20.0625 141.604 19.7557C141.604 19.3352 141.455 18.9962 141.155 18.7386C140.86 18.4811 140.439 18.3523 139.894 18.3523H138.025V21.233ZM155.93 20.4375H153.441C153.396 20.1155 153.303 19.8295 153.163 19.5795C153.022 19.3258 152.843 19.1098 152.623 18.9318C152.403 18.7538 152.149 18.6174 151.861 18.5227C151.577 18.428 151.269 18.3807 150.935 18.3807C150.333 18.3807 149.808 18.5303 149.361 18.8295C148.915 19.125 148.568 19.5568 148.322 20.125C148.075 20.6894 147.952 21.375 147.952 22.1818C147.952 23.0114 148.075 23.7083 148.322 24.2727C148.572 24.8371 148.92 25.2633 149.367 25.5511C149.814 25.839 150.331 25.983 150.918 25.983C151.248 25.983 151.553 25.9394 151.833 25.8523C152.117 25.7652 152.369 25.6383 152.589 25.4716C152.808 25.3011 152.99 25.0947 153.134 24.8523C153.282 24.6098 153.384 24.3333 153.441 24.0227L155.93 24.0341C155.865 24.5682 155.704 25.0833 155.447 25.5795C155.193 26.072 154.85 26.5133 154.418 26.9034C153.99 27.2898 153.479 27.5966 152.884 27.8239C152.293 28.0473 151.625 28.1591 150.879 28.1591C149.841 28.1591 148.913 27.9242 148.094 27.4545C147.28 26.9848 146.636 26.3049 146.163 25.4148C145.693 24.5246 145.458 23.447 145.458 22.1818C145.458 20.9129 145.697 19.8333 146.174 18.9432C146.651 18.053 147.299 17.375 148.117 16.9091C148.935 16.4394 149.856 16.2045 150.879 16.2045C151.553 16.2045 152.178 16.2992 152.754 16.4886C153.333 16.678 153.846 16.9545 154.293 17.3182C154.74 17.678 155.104 18.1193 155.384 18.642C155.668 19.1648 155.85 19.7633 155.93 20.4375ZM164.254 28L160.515 23.0398H159.674V28H157.214V16.3636H159.674V21.0114H160.168L164.032 16.3636H167.095L162.555 21.7614L167.305 28H164.254ZM168.062 16.3636H170.517V23.6818H170.613L175.642 16.3636H177.795V28H175.335V20.6761H175.249L170.193 28H168.062V16.3636ZM179.348 16.3636H181.802V23.6818H181.899L186.927 16.3636H189.081V28H186.62V20.6761H186.535L181.478 28H179.348V16.3636ZM185.348 13.3182H187.035C187.031 14.0076 186.776 14.5625 186.268 14.983C185.764 15.4034 185.082 15.6136 184.223 15.6136C183.359 15.6136 182.675 15.4034 182.171 14.983C181.668 14.5625 181.416 14.0076 181.416 13.3182H183.092C183.088 13.5795 183.171 13.8144 183.342 14.0227C183.516 14.2311 183.81 14.3352 184.223 14.3352C184.624 14.3352 184.912 14.233 185.086 14.0284C185.26 13.8239 185.348 13.5871 185.348 13.3182ZM86.0511 44L82.3125 39.0398H81.4716V44H79.0114V32.3636H81.4716V37.0114H81.9659L85.8295 32.3636H88.892L84.3523 37.7614L89.1023 44H86.0511ZM99.8964 38.1818C99.8964 39.4508 99.6559 40.5303 99.1748 41.4205C98.6976 42.3106 98.046 42.9905 97.2203 43.4602C96.3983 43.9261 95.4741 44.1591 94.4476 44.1591C93.4135 44.1591 92.4854 43.9242 91.6635 43.4545C90.8415 42.9848 90.1919 42.3049 89.7146 41.4148C89.2373 40.5246 88.9987 39.447 88.9987 38.1818C88.9987 36.9129 89.2373 35.8333 89.7146 34.9432C90.1919 34.053 90.8415 33.375 91.6635 32.9091C92.4854 32.4394 93.4135 32.2045 94.4476 32.2045C95.4741 32.2045 96.3983 32.4394 97.2203 32.9091C98.046 33.375 98.6976 34.053 99.1748 34.9432C99.6559 35.8333 99.8964 36.9129 99.8964 38.1818ZM97.4021 38.1818C97.4021 37.3598 97.279 36.6667 97.0328 36.1023C96.7904 35.5379 96.4476 35.1098 96.0044 34.8182C95.5612 34.5265 95.0423 34.3807 94.4476 34.3807C93.8529 34.3807 93.3339 34.5265 92.8907 34.8182C92.4476 35.1098 92.1029 35.5379 91.8566 36.1023C91.6142 36.6667 91.493 37.3598 91.493 38.1818C91.493 39.0038 91.6142 39.697 91.8566 40.2614C92.1029 40.8258 92.4476 41.2538 92.8907 41.5455C93.3339 41.8371 93.8529 41.983 94.4476 41.983C95.0423 41.983 95.5612 41.8371 96.0044 41.5455C96.4476 41.2538 96.7904 40.8258 97.0328 40.2614C97.279 39.697 97.4021 39.0038 97.4021 38.1818ZM100.608 44V42.0227L100.938 41.9943C101.362 41.9602 101.705 41.7992 101.966 41.5114C102.228 41.2197 102.423 40.7557 102.551 40.1193C102.684 39.4792 102.769 38.6193 102.807 37.5398L103 32.3636H110.898V44H108.506V34.3352H105.284L105.103 38.3864C105.042 39.6894 104.887 40.7538 104.637 41.5795C104.39 42.4053 103.996 43.0152 103.455 43.4091C102.917 43.803 102.18 44 101.245 44H100.608ZM111.816 44V42.0227L112.145 41.9943C112.569 41.9602 112.912 41.7992 113.174 41.5114C113.435 41.2197 113.63 40.7557 113.759 40.1193C113.891 39.4792 113.977 38.6193 114.015 37.5398L114.208 32.3636H122.105V44H119.713V34.3352H116.492L116.31 38.3864C116.249 39.6894 116.094 40.7538 115.844 41.5795C115.598 42.4053 115.204 43.0152 114.662 43.4091C114.124 43.803 113.388 44 112.452 44H111.816ZM123.654 44V32.3636H131.495V34.392H126.114V37.1648H131.091V39.1932H126.114V41.9716H131.518V44H123.654ZM132.34 46.8068V42.0398H133.13C133.399 41.8466 133.645 41.5739 133.868 41.2216C134.092 40.8655 134.283 40.375 134.442 39.75C134.601 39.1212 134.715 38.2992 134.783 37.2841L135.113 32.3636H142.812V42.0398H144.084V46.7955H141.721V44H134.704V46.8068H132.34ZM135.971 42.0398H140.448V34.392H137.329L137.147 37.2841C137.098 38.053 137.016 38.7348 136.903 39.3295C136.793 39.9242 136.658 40.4451 136.499 40.892C136.344 41.3352 136.168 41.7178 135.971 42.0398ZM153.964 32.3636V44H151.577V32.3636H153.964ZM144.549 44L148.197 37.8636L144.702 32.3636H147.731L150.344 37.1534H155.259L157.805 32.3636H160.822L157.413 37.8466L160.992 44H158.055L155.594 39.4261H149.986L147.464 44H144.549Z" fill="white"/>
<path fill-rule="evenodd" clip-rule="evenodd" d="M55.4507 0H6.5493C2.93222 0 0 2.91988 0 6.52174V38.6957C0 42.2975 2.93222 45.2174 6.5493 45.2174H55.4507C59.0678 45.2174 62 42.2975 62 38.6957V6.52174C62 2.91988 59.0678 0 55.4507 0ZM26.6338 17.3913L22.0493 11.7391L11.3054 20.9622C10.2952 21.8294 10.2952 23.388 11.3054 24.2552L22.0493 33.4783L26.6338 27.8261L20.0845 22.6087L26.6338 17.3913ZM39.9507 33.4783L35.3662 27.8261L41.9155 22.6087L35.3662 17.3913L39.9507 11.7391L50.6946 20.9621C51.7048 21.8294 51.7048 23.388 50.6946 24.2552L39.9507 33.4783Z" fill="white"/>
<path d="M43.2254 52.6087H18.7746V56.2889C18.7746 57.2731 19.1673 58.2171 19.8662 58.913C20.5651 59.609 21.513 60 22.5014 60H39.4986C40.487 60 41.4349 59.609 42.1338 58.913C42.8327 58.2171 43.2254 57.2731 43.2254 56.2889V52.6087Z" fill="white"/>
</svg>
